# xmcd
#
# Track frame offsets: 
#        150
#        13285
#        28694
#        42939
#        64325
#        77316
#        96484
#        115981
#        131113
#        150059
#        165326
#
# Disc length: 2455 seconds
#
# Revision: 0
# Processed by: cddbd v1.5.2PL0 Copyright (c) Steve Scherf et al.
# Submitted via: ExactAudioCopy v1.0b1
#
DISCID=8309950b
DTITLE=Loretta and the Bad Kings - Loretta and the Bad Kings
DYEAR=2010
DGENRE=Blues
TTITLE0=Hittin' On Nothin'
TTITLE1=FolloW My Hips
TTITLE2=Rockin' Sue
TTITLE3=My Man Is A Man For You
TTITLE4=Who's The Rocket Man
TTITLE5=Livin' In A Rubbish Dump
TTITLE6=Somebody's Gonna Miss Me
TTITLE7=Oh Yeah
TTITLE8=All Saints Day
TTITLE9=Honest I Do
TTITLE10=Livin' In A Rubbish Dump (alternate)
EXTD=
EXTT0=
EXTT1=
EXTT2=
EXTT3=
EXTT4=
EXTT5=
EXTT6=
EXTT7=
EXTT8=
EXTT9=
EXTT10=
PLAYORDER=
